<svg width="36" height="37" viewBox="0 0 36 37" fill="none" xmlns="http://www.w3.org/2000/svg">
<rect y="0.349609" width="36" height="36" rx="12" fill="#E23546"/>
<path d="M19.6374 10.0738C19.4889 10.2142 19.2856 10.5774 19.2856 11.0865C19.2856 11.2086 19.2856 14.1266 19.2856 14.2309C19.2856 14.4918 19.1884 14.7405 19.0319 14.8813C18.9496 14.9564 18.4332 15.4214 18.4014 15.446H18.6993C18.7895 15.3607 19.7289 14.5391 19.8266 14.4276C19.954 14.2829 20.2586 13.9178 20.2586 13.3441C20.2586 13.2094 20.2607 10.4441 20.2607 10.3224C20.2607 9.86909 20.4721 9.61772 20.5828 9.49618C20.6952 9.37188 21.0515 9.06621 21.1428 8.98539L20.8485 8.98242C20.7636 9.06048 19.7394 9.97812 19.6374 10.0738Z" fill="white"/>
<path d="M17.3115 21.5207L18.4614 22.5178H19.2324C20.0151 22.5178 20.7301 22.1848 21.2031 21.7158C21.6757 21.2468 21.8501 20.6174 21.8501 20.028C21.8501 19.5993 21.8501 18.4714 21.8501 18.3931C21.8501 17.8437 21.503 17.5239 21.4057 17.4282C21.3531 17.3764 21.0178 17.0625 21.0178 17.0625V18.3174C21.0178 18.3174 21.3869 18.695 21.4594 18.7713C21.8016 19.1317 21.7977 19.7868 20.7175 20.8317C20.5277 21.0147 19.988 21.5207 19.2452 21.5207C19.1394 21.5207 17.3115 21.5207 17.3115 21.5207Z" fill="white"/>
<path d="M21.9911 15.7258C21.9911 15.7258 22.3211 16.1019 22.451 16.2027C22.8862 16.5427 23.0771 16.1541 22.7971 15.7099C22.7308 15.6034 22.4602 15.425 21.9911 15.7258ZM20.5107 14.8122C20.382 14.9465 20.2602 15.2755 20.2602 15.5655C20.2602 15.7267 20.2602 16.1849 20.2602 16.1849C20.2602 16.1849 20.7674 16.1849 20.8916 16.1849C21.138 16.1849 21.3605 16.0033 21.5332 15.8448C21.5377 15.8368 21.5332 15.2303 21.5332 15.2303C21.5332 15.2303 21.6952 15.4151 21.8393 15.5638C22.0513 15.3716 22.5979 14.8044 22.9952 14.8044C23.8006 14.8044 23.6181 15.8058 23.2885 16.1278C23.1822 16.2319 22.7071 16.6642 22.56 16.803C22.1804 17.1625 21.5292 16.9907 21.5292 16.0629C21.5292 16.0629 20.8313 16.7207 20.7255 16.8074C20.6191 16.895 20.2602 17.2732 20.2602 17.2732C20.2602 17.2732 20.2602 18.7473 20.2602 18.9042C20.2602 19.6868 20.021 19.9687 19.7853 20.1848C19.6807 20.2805 18.8333 21.0437 18.6804 21.1771H18.3799C18.3799 21.1771 18.9258 20.7043 19.029 20.5972C19.1477 20.4763 19.2851 20.2277 19.2851 19.8147C19.2851 19.7103 19.2723 17.2518 19.2723 17.2518C19.2723 17.2518 15.4113 17.2518 15.2354 17.2518C13.8311 17.2518 13.5312 15.7057 13.5224 15.2922C13.5201 15.1701 13.5224 13.9353 13.5224 13.7431C13.5224 13.4884 13.3587 13.0603 13.0967 12.9277H13.4923C13.5383 12.9472 13.7871 13.0472 13.7871 13.9949C13.7871 13.9949 13.7704 15.0982 13.7704 15.1571C13.7704 15.6378 14.1553 16.1893 14.7121 16.1893C14.8258 16.1893 19.2808 16.1849 19.2808 16.1849C19.2851 16.0629 19.4089 15.5998 19.6284 15.3561C19.7519 15.2178 20.7326 14.3279 20.8441 14.2422L21.1342 14.2393C21.0921 14.2789 20.6161 14.7009 20.5107 14.8122Z" fill="white"/>
<path d="M17.1115 18.6627C17.1115 18.881 16.4074 19.4631 16.3662 19.5038C16.3153 19.2681 16.1375 19.0079 15.6123 18.4862L16.3833 17.7207C16.8999 18.2334 17.1115 18.3429 17.1115 18.6627Z" fill="white"/>
<path d="M15.7617 14.1596C15.551 14.3791 15.5138 14.4343 15.3161 14.5518C15.3342 14.5518 17.6533 14.5518 17.729 14.5518C18.3835 14.5518 18.2526 14.1494 18.1347 13.946C17.8955 13.5292 17.1361 12.7553 17.1361 12.7553C17.1361 12.7553 15.8062 14.1135 15.7617 14.1596ZM18.4484 9.88873C18.6036 10.0429 18.9366 10.4585 18.7368 10.657C18.56 10.8322 18.2868 11.111 18.2868 11.111C18.2738 11.0102 18.0171 10.769 18.0171 10.769C18.0171 10.769 18.0195 11.5083 18.0171 11.5999C18.009 11.9334 17.8814 12.0286 17.8814 12.0286C17.8814 12.0286 18.5029 12.6402 18.5029 13.4265C18.5029 13.8081 18.504 14.1581 18.504 14.2336C18.504 14.3952 18.4632 14.5195 18.3499 14.6432C18.2939 14.7047 17.7185 15.2796 17.6307 15.3581C17.4642 15.507 17.2891 15.532 17.1572 15.532C17.0647 15.532 15.0765 15.532 15.0153 15.532C14.678 15.532 14.3301 15.2709 14.3301 15.0087C14.3301 14.9438 14.3348 14.2211 14.3348 14.2211C14.4442 14.3467 14.5562 14.4945 14.826 14.4909C15.0369 14.4869 15.2579 14.3231 15.3182 14.2642C15.3787 14.2033 16.9384 12.5858 16.9384 12.5858C16.9384 12.5858 16.2084 11.9143 15.7267 11.5944C15.4915 11.4391 15.1808 11.6358 15.1342 11.8415C14.9858 12.484 15.1342 13.45 15.1342 13.45C15.1342 13.45 14.6575 12.9772 14.5427 12.8642C14.3038 12.627 14.3132 12.091 14.5968 11.8097C14.6411 11.7645 15.0735 11.2807 15.623 11.2807C15.7104 11.2807 16.3813 11.2807 16.4782 11.2807C17.0514 11.2807 17.6702 11.8383 17.6702 11.8383C17.6702 11.8383 17.7619 11.7376 17.7619 11.6415C17.7619 11.3498 17.7598 10.5718 17.7598 10.5718C17.3284 10.1431 17.2703 9.70164 17.4772 9.49588C17.8624 9.11258 18.0041 8.97852 18.0041 8.97852C18.0041 8.97852 17.9994 9.44242 18.4484 9.88873Z" fill="white"/>
<path d="M13.0113 16.3379H12.6152C12.6152 16.3379 13.0414 16.5704 13.0414 17.1686C13.0414 17.3264 13.0414 18.9489 13.0414 19.0793C13.0414 20.3222 14.0749 21.4723 15.3306 21.4723C15.5418 21.4723 16.2386 21.4723 16.379 21.4723C17.0085 21.4723 17.2295 21.321 17.6106 20.9855C17.7495 20.8624 17.9307 20.6607 17.9981 20.5869C18.2169 20.3434 18.4501 20.147 18.4501 19.5059C18.4501 19.3494 18.4501 18.9673 18.4501 18.88C18.4501 18.3397 18.1342 18.1148 17.9831 17.964C17.8854 17.8666 17.6165 17.6125 17.6165 17.6125V18.8933C17.6165 18.8933 17.8805 19.1725 17.9979 19.2641C18.5418 19.6905 18.1099 20.4346 17.6027 20.4346C17.502 20.4346 15.4407 20.4354 15.3 20.4354C14.4139 20.4354 13.3058 19.706 13.3058 18.4432C13.3058 18.2737 13.3058 17.5154 13.3058 17.4046C13.3063 16.3379 13.0113 16.3379 13.0113 16.3379Z" fill="white"/>
<path d="M15.5354 18.6655C15.5354 18.8838 14.8307 19.4654 14.7894 19.5062C14.739 19.2705 14.5607 19.0098 14.0352 18.4882L14.8068 17.7227C15.3234 18.236 15.5354 18.3457 15.5354 18.6655Z" fill="white"/>
<path d="M7.46916 27.1682C7.34284 27.1682 6.36968 27.1669 6.23545 27.1669C5.84944 27.1669 5.87958 26.8449 5.8458 26.5762V24.8154C5.8458 24.8154 6.1164 24.8088 6.4135 24.8088C6.75634 24.8088 7.18446 24.7587 7.59976 24.9923C7.59976 24.9923 7.30052 24.2812 6.41115 24.2812H5.8458C5.8458 24.2812 5.8458 24.1801 5.8458 23.9348V23.7166C5.8458 23.7166 5.8458 23.2236 5.72376 23.0832C5.72376 23.0832 6.47976 23.0857 6.53319 23.0861C7.24046 23.087 7.78849 23.0758 8.35832 23.4465C8.35832 23.4465 8.2491 22.5215 6.87903 22.5215C6.10144 22.5215 4.32718 22.5215 4.21582 22.5215C4.21582 22.5215 4.69139 22.9154 4.66318 23.7142L4.69139 26.9135C4.69139 27.7229 5.00858 27.7363 5.00858 27.7363C5.04064 27.7363 5.20266 27.7363 5.92061 27.7363C6.04031 27.7363 6.18309 27.7363 6.33484 27.7363C6.71851 27.7363 7.22272 27.7363 7.63182 27.7363C8.22858 27.7363 8.43591 27.3212 8.43591 27.0887L8.44467 26.78C8.44467 26.78 8.2553 27.1682 7.46916 27.1682Z" fill="white"/>
<path d="M14.4501 26.8968V24.6592C14.4501 23.7916 13.7309 23.5599 13.2002 23.5599C12.4985 23.5599 12.2856 24.1467 12.1965 24.3437C12.0374 23.8009 11.4858 23.5527 11.0333 23.5527C10.1877 23.5527 9.97079 24.3569 9.97079 24.3569C9.97079 24.3569 9.95027 23.5818 9.26395 23.5818L8.59473 23.5831C8.59473 23.5831 8.97946 23.7417 8.97946 24.412L8.97882 26.8966C8.97882 27.7247 9.31418 27.7326 9.31418 27.7326H10.4248C10.3955 27.7247 9.99772 27.4256 9.99772 26.8903V24.6869C10.0116 24.5879 10.1792 24.2593 10.6582 24.2593C10.9209 24.2593 11.2154 24.5344 11.2107 24.8492L11.209 26.8958C11.209 27.7303 11.5399 27.7322 11.5399 27.7322H12.6543C12.6543 27.7322 12.2277 27.4362 12.2277 26.8881L12.2243 24.6844C12.2655 24.5609 12.413 24.265 12.8343 24.265C13.163 24.265 13.4387 24.5406 13.4308 24.8558C13.4308 24.8558 13.4285 26.7248 13.4293 26.8983C13.4349 27.7364 13.7606 27.7298 13.7606 27.7298C14.3414 27.7298 14.8755 27.7319 14.8755 27.7319C14.8755 27.7319 14.4501 27.4418 14.4501 26.8968Z" fill="white"/>
<path d="M16.3866 26.8947C16.3866 27.4462 16.8141 27.7315 16.8141 27.7315C16.8141 27.7315 16.2849 27.7294 15.7037 27.7294C15.7037 27.7294 15.373 27.7332 15.373 26.9017V26.8979L15.3745 24.4046C15.3745 23.7487 14.9902 23.5801 14.9902 23.5801H15.6526C15.889 23.5801 16.3834 23.5801 16.3834 24.5081L16.3817 26.8907L16.3866 26.8947Z" fill="white"/>
<path d="M19.7939 23.8954C19.7939 23.8954 19.6869 23.5959 19.2267 23.5959C18.5301 23.5959 18.3604 24.413 18.3604 24.413C18.3025 23.7684 18.1283 23.5762 17.6461 23.5762L16.9736 23.577C16.9736 23.577 17.3644 23.737 17.3644 24.4056L17.3624 26.8946C17.3624 27.7231 17.6965 27.731 17.6965 27.731H18.7964C18.7682 27.7231 18.3717 27.4236 18.3717 26.887L18.3734 24.8523C18.4001 24.6658 18.4967 24.5246 18.6453 24.4289C19.0093 24.1994 19.509 24.2558 19.7942 24.5958C19.7942 24.5958 19.7939 24.1601 19.7939 23.8954Z" fill="white"/>
<path d="M24.9409 24.047C25.3173 24.047 25.5982 24.2095 25.5982 24.2095L25.6008 23.581H24.6731V22.6309C24.6731 22.6309 24.4329 23.053 23.9306 23.4562C23.6162 23.714 22.9551 24.0304 22.9551 24.0304L23.6596 24.0434L23.6581 26.9301C23.6581 27.7305 23.9964 27.7305 23.9964 27.7305C24.6039 27.7305 25.0946 27.7326 25.0946 27.7326C25.0946 27.7326 24.6716 27.4471 24.6716 26.9227L24.6731 24.0457C24.9595 24.0466 24.7593 24.047 24.9409 24.047Z" fill="white"/>
<path d="M27.6231 25.0361C27.8072 24.6988 27.9516 23.8467 27.3233 23.8934C26.6032 23.9469 26.7415 25.8613 26.7415 25.8613C26.9802 25.5991 27.3423 25.546 27.6231 25.0361ZM28.3047 25.3021C27.6819 25.9423 27.1931 25.842 26.8135 26.3146C26.8135 26.3146 26.8746 26.953 27.3594 27.1787C27.528 27.2557 28.2128 27.4734 28.6553 26.7057L28.6542 27.435C28.6542 27.435 28.3691 27.7375 27.4641 27.7375C26.3847 27.7375 25.6377 26.8911 25.6377 25.7435C25.6377 24.6146 26.2471 23.5655 27.3857 23.5606C28.5121 23.5534 29.1225 24.4519 28.3047 25.3021Z" fill="white"/>
<path d="M15.8705 23.244C16.1569 23.244 16.3897 23.0241 16.3897 22.746C16.3897 22.4679 16.1569 22.2422 15.8705 22.2422C15.5841 22.2422 15.3633 22.4679 15.3633 22.746C15.3633 23.0241 15.5841 23.244 15.8705 23.244Z" fill="white"/>
<path d="M30.7414 26.6025C30.7497 26.8967 30.4864 27.2849 29.9234 27.2849C29.3711 27.2849 29.1283 26.6963 29.1283 26.6963L29.1238 27.4391C29.1238 27.4391 29.5329 27.7329 30.1724 27.7329H30.1718C30.9333 27.7329 31.6842 27.1657 31.6613 26.3728C31.6534 26.0915 31.5566 25.8525 31.4059 25.6465C31.1477 25.3105 30.6822 25.0619 30.313 24.8502C29.812 24.5623 29.8796 23.9438 30.6146 24.0026C31.1652 24.0465 31.3984 24.573 31.3984 24.573V23.881C31.3984 23.881 30.9741 23.5488 30.334 23.5488C29.669 23.5488 29.0776 23.9856 29.0941 24.5407C29.1086 25.032 29.3104 25.3523 29.7165 25.6452C29.8777 25.7649 30.0696 25.8796 30.2915 26.0029C30.6166 26.18 30.7358 26.3985 30.7414 26.6025Z" fill="white"/>
<path d="M21.6884 24.4933C21.6884 24.8997 21.3411 25.0815 21.1143 25.1801C20.4541 25.4665 19.6094 25.7821 19.6094 26.7341C19.6094 27.3714 20.0747 27.7368 20.7283 27.7368C21.2293 27.7368 21.4809 27.48 21.6055 27.2379C21.6812 27.7074 21.9169 27.7288 21.9169 27.7288C22.4942 27.7288 23.0232 27.7322 23.0232 27.7322C23.0232 27.7322 22.5917 27.4414 22.5917 26.8968V24.5654C22.5917 24.0056 21.9678 23.5723 21.3058 23.5723C20.6691 23.5723 20.2673 23.8773 20.2673 23.8773C20.2673 24.0642 20.2673 24.5998 20.2673 24.5998C20.2673 24.5998 20.4945 24.0264 21.0701 24.0264C21.5478 24.0264 21.6884 24.2589 21.6884 24.4933ZM21.0891 27.2583C20.7403 27.2583 20.5028 27.0727 20.5028 26.6794C20.5028 25.744 21.3588 25.5514 21.5884 25.2745L21.5869 27.0203C21.5794 27.0271 21.4328 27.2583 21.0891 27.2583Z" fill="white"/>
</svg>
