<svg width="52" height="48" viewBox="0 0 52 48" fill="none" xmlns="http://www.w3.org/2000/svg">
<path d="M14.854 0.539062V47.4609C12.201 46.2019 9.75441 44.4847 7.6157 42.35C2.70484 37.4483 0 30.9318 0 24C0 17.0682 2.70484 10.5517 7.6157 5.65004C9.75441 3.51533 12.201 1.79808 14.854 0.539062ZM44.3843 5.65004C42.2456 3.51533 39.799 1.79808 37.146 0.539062V47.4609C39.799 46.2019 42.2456 44.4847 44.3843 42.35C49.2952 37.4483 52 30.9318 52 24C52 17.0682 49.2952 10.5517 44.3843 5.65004ZM33.5396 24.1218L31.866 23.4773V21.6879C31.866 21.5735 31.8067 21.4672 31.7092 21.407C31.6116 21.3466 31.4899 21.3412 31.3874 21.3921L28.5576 22.7984L29.8944 20.0021C29.9434 19.8997 29.9363 19.7795 29.8756 19.6834C29.815 19.5875 29.7093 19.5293 29.5956 19.5293H28.0235L26.2631 16.8555C26.2018 16.7625 26.0979 16.7065 25.9864 16.7065H25.9853C25.8734 16.7068 25.7694 16.7637 25.7085 16.8573L23.9748 19.5293H22.4041C22.2905 19.5293 22.1848 19.5875 22.1242 19.6834C22.0635 19.7794 22.0564 19.8997 22.1054 20.0021L23.4422 22.7984L20.6124 21.3921C20.51 21.3412 20.3881 21.3466 20.2906 21.407C20.193 21.4672 20.1338 21.5735 20.1338 21.6879V23.4773L18.4602 24.1218C18.3384 24.1688 18.2555 24.2828 18.2488 24.413C18.2419 24.5433 18.3126 24.6652 18.4289 24.7245L21.9202 26.5038L21.0919 27.9785C21.0345 28.0809 21.0356 28.2059 21.095 28.3071C21.1545 28.4083 21.2631 28.4705 21.3807 28.4705H24.7259V30.9628C24.7259 31.1453 24.8741 31.2933 25.057 31.2933H26.9426C27.1254 31.2933 27.2736 31.1453 27.2736 30.9628V28.4705H30.5651C30.6813 28.4705 30.7889 28.4097 30.8487 28.3104C30.9087 28.2111 30.912 28.0877 30.8576 27.9852L30.0724 26.5074L33.5707 24.7243C33.687 24.6651 33.7575 24.5432 33.7508 24.4128C33.7443 24.2828 33.6614 24.1688 33.5396 24.1218Z" fill="#D90028"/>
</svg>
