<svg width="36" height="36" viewBox="0 0 36 36" fill="none" xmlns="http://www.w3.org/2000/svg">
<rect width="36" height="35.9999" rx="12" fill="#F4CA14"/>
<path d="M18 11C10.2681 11 4 14.1341 4 18C4 21.8659 10.2681 24.9999 18 24.9999C25.7319 24.9999 32 21.8659 32 18C32 14.134 25.7319 11 18 11ZM18 23.8948C10.8784 23.8948 5.10515 21.2556 5.10515 18C5.10515 14.7443 10.8784 12.1051 18 12.1051C25.1216 12.1051 30.8948 14.7443 30.8948 18C30.8948 21.2556 25.1216 23.8948 18 23.8948ZM16.2344 16.7719V15.6666H20.184V16.7719H18.7621V20.3334H17.6566V16.7719H16.2344ZM24.9514 15.6666V20.3334H23.8463L21.8419 17.5553V20.3334H20.7367V15.6666H21.8418L23.8462 18.4447V15.6666H24.9514ZM11.0157 20.3334V15.6666H12.1208L13.3487 17.5553L14.5765 15.6666H15.6812V20.3334H14.5765V17.6937L13.7383 18.9822H12.9591L12.1208 17.6937V20.3334H11.0157Z" fill="black"/>
</svg>
