<svg width="36" height="36" viewBox="0 0 36 36" fill="none" xmlns="http://www.w3.org/2000/svg">
<g clip-path="url(#clip0_424_233)">
<rect width="36" height="36" rx="12" fill="white"/>
<path fill-rule="evenodd" clip-rule="evenodd" d="M15.1875 6.75C15.3367 6.75 15.4798 6.80926 15.5852 6.91475C15.6907 7.02024 15.75 7.16332 15.75 7.3125V29.4381C15.75 29.5818 15.695 29.7201 15.5962 29.8245C15.4975 29.9289 15.3625 29.9916 15.219 29.9996C14.1694 30.0563 13.4196 30.119 12.4993 30.2233C12.3421 30.2407 12.183 30.2248 12.0323 30.1766C11.8817 30.1283 11.7429 30.0489 11.625 29.9434C11.5071 29.838 11.4128 29.7088 11.3482 29.5644C11.2836 29.4201 11.2501 29.2637 11.25 29.1055V7.3125C11.25 7.16332 11.3093 7.02024 11.4148 6.91475C11.5202 6.80926 11.6633 6.75 11.8125 6.75H15.1875Z" fill="#D20014"/>
<path fill-rule="evenodd" clip-rule="evenodd" d="M24.75 7.3125C24.75 7.01413 24.6315 6.72798 24.4205 6.51701C24.2095 6.30603 23.9234 6.1875 23.625 6.1875H21.375C21.0766 6.1875 20.7905 6.30603 20.5795 6.51701C20.3685 6.72798 20.25 7.01413 20.25 7.3125V29.25C20.25 29.3992 20.3093 29.5423 20.4148 29.6477C20.5202 29.7532 20.6633 29.8125 20.8125 29.8125H24.1875C24.3367 29.8125 24.4798 29.7532 24.5852 29.6477C24.6907 29.5423 24.75 29.3992 24.75 29.25V7.3125Z" fill="#D20014"/>
<path d="M16.3378 6.93253C16.2594 6.71444 16.1156 6.52585 15.926 6.39251C15.7365 6.25917 15.5104 6.18758 15.2786 6.1875H12.3739C12.2263 6.18748 12.0801 6.21653 11.9438 6.273C11.8074 6.32948 11.6835 6.41226 11.5791 6.51663C11.4748 6.62099 11.392 6.7449 11.3355 6.88126C11.279 7.01763 11.25 7.16378 11.25 7.31138V7.30929C11.25 7.2633 11.2662 7.21879 11.2959 7.1836C11.3255 7.14841 11.3665 7.12479 11.4118 7.11691C11.4572 7.10904 11.5038 7.1174 11.5435 7.14053C11.5833 7.16366 11.6136 7.20008 11.6291 7.24337C13.086 11.3034 18.3066 25.852 19.5283 29.2564C19.6039 29.4669 19.7406 29.6501 19.9209 29.7825C20.1011 29.915 20.3168 29.9907 20.5402 30C21.7046 30.0542 22.8414 30.1596 23.6396 30.2448C23.7794 30.2601 23.9208 30.2457 24.0547 30.2027C24.1885 30.1596 24.3118 30.0889 24.4165 29.995C24.5212 29.9012 24.605 29.7864 24.6623 29.658C24.7197 29.5296 24.7494 29.3906 24.7494 29.25L24.75 29.2531C24.75 29.2991 24.7338 29.3436 24.7041 29.3788C24.6745 29.414 24.6335 29.4376 24.5882 29.4455C24.5428 29.4534 24.4962 29.445 24.4565 29.4219C24.4167 29.3987 24.3864 29.3623 24.3709 29.319C22.9005 25.2217 17.5928 10.43 16.3378 6.93253Z" fill="#FF0A1E"/>
</g>
<defs>
<clipPath id="clip0_424_233">
<rect width="36" height="36" rx="12" fill="white"/>
</clipPath>
</defs>
</svg>
