<svg width="424" height="596" viewBox="0 0 424 596" fill="none" xmlns="http://www.w3.org/2000/svg">
<path d="M83.2002 4H340.8C355.427 4 366.157 4.00325 374.628 4.69531C382.788 5.36206 388.521 6.64951 393.329 9.00098L393.792 9.23145C402.542 13.6896 409.706 20.7208 414.329 29.3672L414.769 30.208C417.267 35.1118 418.616 40.9484 419.305 49.3721C419.997 57.8425 420 68.5728 420 83.2002V592H4V83.2002C4 68.5728 4.00325 57.8425 4.69531 49.3721C5.36206 41.2116 6.64951 35.4795 9.00098 30.6709L9.23145 30.208C13.6896 21.4584 20.7208 14.2939 29.3672 9.6709L30.208 9.23145C35.1118 6.73283 40.9484 5.38356 49.3721 4.69531C57.8425 4.00325 68.5728 4 83.2002 4Z" stroke="white" stroke-width="8"/>
</svg>
