<svg width="36" height="36" viewBox="0 0 36 36" fill="none" xmlns="http://www.w3.org/2000/svg">
<g clip-path="url(#clip0_424_204)">
<path fill-rule="evenodd" clip-rule="evenodd" d="M27 36H9C6.61308 35.9999 4.32396 35.0517 2.63615 33.3638C0.94835 31.676 0.000104421 29.3869 0 27L0 9C0.000104421 6.61308 0.94835 4.32396 2.63615 2.63615C4.32396 0.94835 6.61308 0.000104421 9 0L27 0C29.3869 0 31.6761 0.948212 33.364 2.63604C35.0518 4.32387 36 6.61305 36 9V27C36 29.3869 35.0518 31.6761 33.364 33.364C31.6761 35.0518 29.3869 36 27 36Z" fill="#1ED764"/>
<path fill-rule="evenodd" clip-rule="evenodd" d="M16.875 10.125H27C28.2978 10.1249 29.5461 9.62643 30.487 8.73248C31.4278 7.83853 31.9895 6.61739 32.0559 5.32125C32.1223 4.02511 31.6884 2.75296 30.8439 1.76752C29.9993 0.782083 28.8085 0.158615 27.5175 0.025875C27.3454 0.0163125 27.1749 0 27 0H9C6.61308 0.000104421 4.32396 0.94835 2.63615 2.63615C0.94835 4.32396 0.000104421 6.61308 0 9L0 27C0.000104425 22.5245 1.77803 18.2323 4.94269 15.0677C8.10734 11.903 12.3995 10.1251 16.875 10.125Z" fill="#37F07D"/>
<path fill-rule="evenodd" clip-rule="evenodd" d="M27 18C25.22 18 23.4799 18.5278 21.9999 19.5168C20.5198 20.5057 19.3663 21.9113 18.6851 23.5558C18.0039 25.2004 17.8257 27.01 18.1729 28.7558C18.5202 30.5016 19.3774 32.1053 20.636 33.364C21.8947 34.6226 23.4984 35.4798 25.2442 35.8271C26.99 36.1743 28.7996 35.9961 30.4442 35.3149C32.0887 34.6337 33.4943 33.4802 34.4832 32.0001C35.4722 30.5201 36 28.78 36 27V9C36 11.3869 35.0518 13.6761 33.364 15.364C31.6761 17.0518 29.387 18 27 18Z" fill="#05BE4B"/>
<path d="M26.2071 26.4649C26.1309 26.5901 26.0308 26.699 25.9124 26.7854C25.7941 26.8718 25.6599 26.934 25.5174 26.9685C25.375 27.003 25.2272 27.009 25.0824 26.9863C24.9377 26.9636 24.7988 26.9126 24.6738 26.8362C20.4725 24.2683 15.1844 23.6884 8.95696 25.111C8.66907 25.1759 8.36721 25.1239 8.11755 24.9666C7.86789 24.8092 7.69081 24.5593 7.62514 24.2716C7.55947 23.9839 7.61056 23.6819 7.76722 23.4318C7.92387 23.1817 8.17331 23.0039 8.46083 22.9375C15.2755 21.3793 21.1216 22.0498 25.837 24.9315C26.0894 25.0859 26.2701 25.3341 26.3395 25.6216C26.4089 25.9091 26.3613 26.2125 26.2071 26.4649ZM28.3958 21.5931C28.3 21.7493 28.1744 21.885 28.0261 21.9926C27.8779 22.1003 27.7098 22.1776 27.5317 22.2203C27.3535 22.263 27.1687 22.2701 26.9877 22.2414C26.8068 22.2126 26.6333 22.1485 26.4771 22.0527C21.6695 19.0973 14.3384 18.2417 8.6504 19.968C8.47498 20.0218 8.29069 20.0405 8.10806 20.0229C7.92543 20.0053 7.74806 19.9519 7.58611 19.8657C7.42417 19.7795 7.28082 19.6622 7.16429 19.5204C7.04776 19.3787 6.96033 19.2154 6.90702 19.0399C6.8537 18.8643 6.83555 18.68 6.8536 18.4974C6.87165 18.3148 6.92554 18.1376 7.01219 17.9759C7.09885 17.8141 7.21655 17.6711 7.35858 17.555C7.5006 17.4388 7.66414 17.3518 7.83983 17.299C14.3373 15.3274 22.4153 16.2825 27.9368 19.6755C28.2519 19.869 28.4772 20.1797 28.5633 20.5393C28.6494 20.8989 28.5891 21.2779 28.3958 21.5931ZM28.5848 16.521C22.8181 13.096 13.3056 12.781 7.80046 14.4522C7.59002 14.5165 7.36895 14.5388 7.14991 14.5176C6.93086 14.4964 6.71814 14.4323 6.52394 14.3288C6.32973 14.2253 6.15785 14.0845 6.01814 13.9144C5.87843 13.7444 5.77363 13.5485 5.70975 13.3379C5.64586 13.1273 5.62415 12.9062 5.64585 12.6872C5.66755 12.4682 5.73224 12.2556 5.8362 12.0617C5.94017 11.8677 6.08138 11.6962 6.25175 11.5569C6.42211 11.4176 6.61828 11.3132 6.82902 11.2498C13.1487 9.33172 23.654 9.70241 30.2926 13.6433C30.6742 13.8697 30.9502 14.2385 31.0599 14.6685C31.1696 15.0985 31.104 15.5544 30.8776 15.936C30.6511 16.3176 30.2823 16.5937 29.8524 16.7034C29.4224 16.8131 28.9664 16.7475 28.5848 16.521Z" fill="white"/>
</g>
<defs>
<clipPath id="clip0_424_204">
<rect width="36" height="36" fill="white"/>
</clipPath>
</defs>
</svg>
